<svg xmlns="http://www.w3.org/2000/svg" version="1.0" width="4.1mm" height="3.95mm">
  <g>
    <path style="fill:#404040" d="M 0.28346455,1.0275591 0.60236217,1.3818898 4.9960627,13.464567 4.8543305,13.818898 4.5708659,13.677166 0.14173228,1.4173229 0.07086614,1.1692914 0.28346455,1.0275591 z"/>
    <path style="fill:{@code}" d="M 12.649606,0.14173229 C 12.507873,0.21259843 9.8503932,1.0629921 8.8582673,1.2047244 l 0,0.035433 C 7.5118106,1.4173229 6.2007871,-0.31889764 4.9960627,0.35433071 l 0.035433,0 C 3.5078738,0.60236222 2.055118,0.95669293 0.56692911,1.4527559 c 0,0 1.87795269,5.1377954 2.01968489,5.5984253 C 3.4015746,6.4842521 6.4488186,5.8110237 6.9803146,5.7047245 l 0,0.035433 c 1.523622,0.2480315 1.8425196,1.1692913 3.7559054,0.7440945 l 0,0.035433 c 0.46063,-0.070866 3.755905,-1.0984253 3.755905,-1.0984253 0,0 -1.700787,-5.38582683 -1.842519,-5.27952761 z"/>
    <path style="fill:#000000" d="M 12.755905,0 C 11.303149,0.496063 9.8503932,1.0984252 8.2913382,1.1692914 7.2637792,1.0275591 6.5551178,-0.17716536 5.4566926,0.14173229 3.8267715,0.42519686 2.1968503,0.88582679 0.60236217,1.3110236 0.24803148,0.42519686 -0.24803148,1.0275591 0.17716535,1.9133859 1.6299212,5.8818899 3.1181101,9.8858269 4.5708659,13.854331 c 1.0629921,0.673228 0.1771654,-1.275591 0,-1.736221 C 3.9685037,10.417323 3.3661416,8.7519687 2.7637794,7.0511812 4.2519683,6.4842521 5.8110233,5.9173229 7.4055114,5.8464568 8.3267712,6.0590552 9.0708657,7.0866143 10.133858,6.6968505 11.622047,6.4842521 13.039369,5.9173229 14.527558,5.4921261 14.562991,4.7125985 13.960629,3.7913386 13.783464,2.9409449 13.429133,1.9488189 13.074802,0.95669293 12.755905,0 z m -0.106299,0.21259843 1.73622,5.10236227 C 12.720472,5.8464568 11.090551,6.4842521 9.3543302,6.5551182 8.3976374,6.3425198 7.7244091,5.3858269 6.5551178,5.7047245 5.2086612,5.952756 3.9330707,6.3779529 2.6929133,6.8740159 2.0196849,5.0669292 1.3464566,3.2952756 0.67322831,1.488189 2.4094487,1.0275591 4.110236,0.496063 5.8818895,0.28346457 6.9448815,0.42519686 7.6535429,1.6299213 8.8228342,1.3464567 10.133858,1.1338583 11.374015,0.67322836 12.649606,0.21259843 z M 1.2401574,3.5433071 c 1.1338582,2.940945 2.1968503,5.917323 3.2598424,8.8937009 0.2480315,0.283465 0.6377952,1.771654 0.070866,1.027559 C 3.1181101,9.3897639 1.6299212,5.2440946 0.14173228,1.1692914 0.4606299,0.85039372 0.85039366,2.7637796 1.2401574,3.5433071 z"/>
  </g>
</svg>
